<svg version="1.1" 
    xmlns="http://www.w3.org/2000/svg" >

    <symbol id="sun" viewBox="0 0 100 100">
        <g transform="translate(0 -270.54)">
            <path d="m75 320.54a25 25 0 0 1-25 25 25 25 0 0 1-25-25 25 25 0 0 1 25-25 25 25 0 0 1 25 25z" fill="#ff0" stroke="#000018" stroke-width="1.0016"/>
            <g fill="none" stroke="#000" stroke-width="1px">
                <path transform="matrix(-.024774 .99959 -.99959 -.024774 434.13 279.43)" d="m50 350.54v5"/>
                <path transform="matrix(-.6893 .72434 -.72434 -.6893 361.48 548.8)" d="m50 350.54v5"/>
                <path transform="matrix(-.99959 .024774 -.024774 -.99959 108.85 702.2)" d="m50 350.54v5"/>
                <path transform="matrix(-.72434 -.6893 .6893 -.72434 -178.26 632.03)" d="m50 350.54v5"/>
                <path transform="matrix(-.024774 -.99959 .99959 -.024774 -331.66 379.39)" d="m50 350.54v5"/>
                <path transform="matrix(.6893 -.72434 .72434 .6893 -261.48 92.283)" d="m50 350.54v5"/>
                <path transform="matrix(.99959 -.024774 .024774 .99959 -8.8498 -61.115)" d="m50 350.54v5"/>
                <path transform="matrix(.72434 .6893 -.6893 .72434 278.26 9.0568)" d="m50 350.54v5"/>
                <path transform="matrix(-.024774 .99959 -.99959 -.024774 434.13 279.43)" d="m50 350.54v5"/>
            </g>
        </g>
    </symbol>

    <symbol id="sun-overcast" viewBox="0 0 100 100">
        <g transform="translate(1.5263 -286.99)">
            <g transform="rotate(156.13,24.208,365.78)" fill="#ff0">
                <path d="m15.912 404.89a14 14 0 0 1-14 14 14 14 0 0 1-14-14 14 14 0 0 1 14-14 14 14 0 0 1 14 14z" fill="#ff0" stroke="#000" stroke-width="1.0016"/>
            </g>
            <path d="m50.973 316.67a16 15 0 0 0-15.973 14.5h-4.0273c-8.3792 0-15.125 6.7458-15.125 15.125s6.7458 15.125 15.125 15.125h39.75c8.3793 0 15.125-6.7458 15.125-15.125s-6.7458-15.125-15.125-15.125h-3.7695a16 15 0 0 0-15.98-14.5z" fill="#fff" stroke="#000" stroke-width="1.0016"/>
        </g>
    </symbol>

    <symbol id="sun-overcast-rain" viewBox="0 0 100 100">
        <g transform="translate(-99.027,-290.67)">
            <g fill="none" stroke="#0080ff" stroke-width="1px">
                <path d="m165 366.17-10 10"/>
                <path d="m150 366.17-10 10"/>
                <path d="m135 366.17-10 10"/>
            </g>
            <g transform="rotate(156.13,73.775,376)" fill="#ff0">
                <path d="m15.912 404.89a14 14 0 0 1-14 14 14 14 0 0 1-14-14 14 14 0 0 1 14-14 14 14 0 0 1 14 14z" fill="#ff0" stroke="#000" stroke-width="1.0016"/>
            </g>
            <path d="m150 316.17a16 15 0 0 0-15.973 14.5h-4.0273c-8.3792 0-15.125 6.7458-15.125 15.125s6.7458 15.125 15.125 15.125h39.75c8.3792 0 15.125-6.7458 15.125-15.125s-6.7458-15.125-15.125-15.125h-3.7695a16 15 0 0 0-15.98-14.5z" fill="#fff" stroke="#000" stroke-width="1.0016"/>
        </g>
    </symbol>

    <symbol id="overcast" viewBox="0 0 100 100">
        <g transform="translate(101.95 -386.99)">
            <path d="m-39.807 409.5a12.869 12.065 0 0 0-12.847 11.663h-3.2393c-6.7396 0-12.165 5.4258-12.165 12.165s5.4258 12.165 12.165 12.165h31.972c6.7396 0 12.165-5.4258 12.165-12.165s-5.4258-12.165-12.165-12.165h-3.0319a12.869 12.065 0 0 0-12.854-11.663z" fill="#fff" stroke="#000" stroke-width=".80559"/>
            <path d="m-55.98 416.67a16 15 0 0 0-15.973 14.5h-4.0273c-8.3792 0-15.125 6.7458-15.125 15.125s6.7458 15.125 15.125 15.125h39.75c8.3792 0 15.125-6.7458 15.125-15.125s-6.7458-15.125-15.125-15.125h-3.7695a16 15 0 0 0-15.98-14.5z" fill="#808080" stroke="#808080" stroke-width="1.0016"/>
        </g>
    </symbol>

    <symbol id="overcast-rain" viewBox="0 0 100 100">
        <g transform="translate(1.953 -392.5)">
            <path d="m60.193 409.5a12.869 12.065 0 0 0-12.847 11.663h-3.2393c-6.7396 0-12.165 5.4258-12.165 12.165s5.4258 12.165 12.165 12.165h31.972c6.7396 0 12.165-5.4258 12.165-12.165s-5.4258-12.165-12.165-12.165h-3.0319a12.869 12.065 0 0 0-12.854-11.663z" fill="#fff" stroke="#000" stroke-width=".80559"/>
            <path d="m44.02 416.67a16 15 0 0 0-15.973 14.5h-4.0273c-8.3792 0-15.125 6.7458-15.125 15.125s6.7458 15.125 15.125 15.125h39.75c8.3792 0 15.125-6.7458 15.125-15.125s-6.7458-15.125-15.125-15.125h-3.7695a16 15 0 0 0-15.98-14.5z" fill="#808080" stroke="#808080" stroke-width="1.0016"/>
            <g fill="none" stroke="#0080ff" stroke-width="1px">
                <path d="m60 466.17-10 10"/>
                <path d="m45 466.17-10 10"/>
                <path d="m30 466.17-10 10"/>
            </g>
        </g>
    </symbol>

    <symbol id="thunderstorm" viewBox="0 0 100 100">
        <g transform="translate(-100.97,-393.67)">
            <path d="m162.15 409.5a12.869 12.065 0 0 0-12.847 11.663h-3.2393c-6.7396 0-12.165 5.4258-12.165 12.165s5.4258 12.165 12.165 12.165h31.972c6.7396 0 12.165-5.4258 12.165-12.165s-5.4258-12.165-12.165-12.165h-3.0319a12.869 12.065 0 0 0-12.854-11.663z" fill="#fff" stroke="#000" stroke-width=".80559"/>
            <path d="m145.97 416.67a16 15 0 0 0-15.973 14.5h-4.0273c-8.3792 0-15.125 6.7458-15.125 15.125s6.7458 15.125 15.125 15.125h39.75c8.3792 0 15.125-6.7458 15.125-15.125s-6.7458-15.125-15.125-15.125h-3.7695a16 15 0 0 0-15.98-14.5z" fill="#808080" stroke="#808080" stroke-width="1.0016"/>
            <path d="m142.5 456.17-17.5 10h5l-7.5 10 17.5-10h-5z" fill="#ffd600"/>
            <path d="m150 466.17-10 10" fill="none" stroke="#0080ff" stroke-width="1px"/>
            <path d="m165 466.17-10 10" fill="none" stroke="#0080ff" stroke-width="1px"/>
        </g>
    </symbol>

    <symbol id="fog" viewBox="0 0 100 100">
        <g transform="translate(100 -493.17)">
            <path d="m-50.98 511.67a16 15 0 0 0-15.973 14.5h-4.0273c-8.3792 0-15.125 6.7458-15.125 15.125s6.7458 15.125 15.125 15.125h39.75c8.3793 0 15.125-6.7458 15.125-15.125s-6.7458-15.125-15.125-15.125h-3.7695a16 15 0 0 0-15.98-14.5z" fill="#fff" stroke="#000" stroke-width="1.0016"/>
            <g fill="none" stroke="#808080">
                <path d="m-80 561.17h40" stroke-width="1px"/>
                <g stroke-width=".98742px">
                    <path d="m-25 566.17h-39"/>
                    <path d="m-36 571.17h-39"/>
                    <path d="m-30 576.17h-39"/>
                </g>
            </g>
        </g>
    </symbol>

    <symbol id="snow" viewBox="0 0 100 100">
        <g transform="translate(.84746 -496.56)">
            <path d="m49.02 511.67a16 15 0 0 0-15.973 14.5h-4.0273c-8.3792 0-15.125 6.7458-15.125 15.125s6.7458 15.125 15.125 15.125h39.75c8.3793 0 15.125-6.7458 15.125-15.125s-6.7458-15.125-15.125-15.125h-3.7695a16 15 0 0 0-15.98-14.5z" fill="#fff" stroke="#000" stroke-width="1.0016"/>
            <g fill="none" stroke="#808080" stroke-width="1px">
                <path d="m35 566.17v-5"/>
                <path d="m35 566.17v5"/>
                <path d="m35 566.17h-5"/>
                <path d="m35 566.17-4-4"/>
                <path d="m31 570.17 8-8"/>
                <path d="m39 570.17-4-4h5"/>
                <path d="m65 566.17v-5"/>
                <path d="m65 566.17v5"/>
                <path d="m65 566.17h-5"/>
                <path d="m65 566.17-4-4"/>
                <path d="m61 570.17 8-8"/>
                <path d="m69 570.17-4-4h5"/>
                <path d="m50 576.17v-5"/>
                <path d="m50 576.17v5"/>
                <path d="m50 576.17h-5"/>
                <path d="m50 576.17-4-4"/>
                <path d="m46 580.17 8-8"/>
                <path d="m54 580.17-4-4h5"/>
            </g>
        </g>
    </symbol>

    <symbol id="hail" viewBox="0 0 100 100">
        <g transform="translate(-99.027,-495.67)" stroke-width="1.0016">
            <path d="m150 511.17a16 15 0 0 0-15.973 14.5h-4.0273c-8.3792 0-15.125 6.7458-15.125 15.125s6.7458 15.125 15.125 15.125h39.75c8.3792 0 15.125-6.7458 15.125-15.125s-6.7458-15.125-15.125-15.125h-3.7695a16 15 0 0 0-15.98-14.5z" fill="#fff" stroke="#000"/>
            <g fill="none" stroke="#808080">
                <path d="m135.24 561.71 4.7553 3.4549-1.8164 5.5902h-5.8779l-1.8164-5.5902z"/>
                <path transform="rotate(-36,164.58,567.72)" d="m165.76 561.71 4.7553 3.4549-1.8164 5.5902h-5.8779l-1.8164-5.5902z"/>
                <path transform="rotate(18.87,150.03,637.84)" d="m131 574.17 4.7553 3.4549-1.8164 5.5902h-5.8779l-1.8164-5.5902z"/>
            </g>
        </g>
    </symbol>

    <symbol id="wind" viewBox="0 0 100 100">
        <g transform="translate(0 -270.54)">
            <path id="arrow" d="m35 345.54 15-50 15 50-15-10z" fill="none" stroke="#000" stroke-width="1.0016"/>
        </g>
    </symbol>
</svg>