<svg version="1.1" viewBox="0 0 100 100" xmlns="http://www.w3.org/2000/svg">
 <g id="hail" transform="translate(-99.027,-495.67)" stroke-width="1.0016">
  <path d="m150 511.17a16 15 0 0 0-15.973 14.5h-4.0273c-8.3792 0-15.125 6.7458-15.125 15.125s6.7458 15.125 15.125 15.125h39.75c8.3792 0 15.125-6.7458 15.125-15.125s-6.7458-15.125-15.125-15.125h-3.7695a16 15 0 0 0-15.98-14.5z" fill="#fff" stroke="#000"/>
  <g fill="none" stroke="#808080">
   <path d="m135.24 561.71 4.7553 3.4549-1.8164 5.5902h-5.8779l-1.8164-5.5902z"/>
   <path transform="rotate(-36,164.58,567.72)" d="m165.76 561.71 4.7553 3.4549-1.8164 5.5902h-5.8779l-1.8164-5.5902z"/>
   <path transform="rotate(18.87,150.03,637.84)" d="m131 574.17 4.7553 3.4549-1.8164 5.5902h-5.8779l-1.8164-5.5902z"/>
  </g>
 </g>
</svg>
