<svg version="1.1" viewBox="0 0 100 100" xmlns="http://www.w3.org/2000/svg">
 <g id="snow" transform="translate(.84746 -496.56)">
  <path d="m49.02 511.67a16 15 0 0 0-15.973 14.5h-4.0273c-8.3792 0-15.125 6.7458-15.125 15.125s6.7458 15.125 15.125 15.125h39.75c8.3793 0 15.125-6.7458 15.125-15.125s-6.7458-15.125-15.125-15.125h-3.7695a16 15 0 0 0-15.98-14.5z" fill="#fff" stroke="#000" stroke-width="1.0016"/>
  <g fill="none" stroke="#808080" stroke-width="1px">
   <path d="m35 566.17v-5"/>
   <path d="m35 566.17v5"/>
   <path d="m35 566.17h-5"/>
   <path d="m35 566.17-4-4"/>
   <path d="m31 570.17 8-8"/>
   <path d="m39 570.17-4-4h5"/>
   <path d="m65 566.17v-5"/>
   <path d="m65 566.17v5"/>
   <path d="m65 566.17h-5"/>
   <path d="m65 566.17-4-4"/>
   <path d="m61 570.17 8-8"/>
   <path d="m69 570.17-4-4h5"/>
   <path d="m50 576.17v-5"/>
   <path d="m50 576.17v5"/>
   <path d="m50 576.17h-5"/>
   <path d="m50 576.17-4-4"/>
   <path d="m46 580.17 8-8"/>
   <path d="m54 580.17-4-4h5"/>
  </g>
 </g>
</svg>
