<svg version="1.1" viewBox="0 0 100 100" xmlns="http://www.w3.org/2000/svg">
 <g id="sun-overcast-rain" transform="translate(-99.027,-290.67)">
  <g fill="none" stroke="#0080ff" stroke-width="1px">
   <path d="m165 366.17-10 10"/>
   <path d="m150 366.17-10 10"/>
   <path d="m135 366.17-10 10"/>
  </g>
  <g transform="rotate(156.13,73.775,376)" fill="#ff0">
   <path d="m15.912 404.89a14 14 0 0 1-14 14 14 14 0 0 1-14-14 14 14 0 0 1 14-14 14 14 0 0 1 14 14z" fill="#ff0" stroke="#000" stroke-width="1.0016"/>
  </g>
  <path d="m150 316.17a16 15 0 0 0-15.973 14.5h-4.0273c-8.3792 0-15.125 6.7458-15.125 15.125s6.7458 15.125 15.125 15.125h39.75c8.3792 0 15.125-6.7458 15.125-15.125s-6.7458-15.125-15.125-15.125h-3.7695a16 15 0 0 0-15.98-14.5z" fill="#fff" stroke="#000" stroke-width="1.0016"/>
 </g>
</svg>
