<svg version="1.1" viewBox="0 0 100 100" xmlns="http://www.w3.org/2000/svg">
 <g id="sun" transform="translate(0 -270.54)">
  <path d="m75 320.54a25 25 0 0 1-25 25 25 25 0 0 1-25-25 25 25 0 0 1 25-25 25 25 0 0 1 25 25z" fill="#ff0" stroke="#000018" stroke-width="1.0016"/>
  <g fill="none" stroke="#000" stroke-width="1px">
   <path transform="matrix(-.024774 .99959 -.99959 -.024774 434.13 279.43)" d="m50 350.54v5"/>
   <path transform="matrix(-.6893 .72434 -.72434 -.6893 361.48 548.8)" d="m50 350.54v5"/>
   <path transform="matrix(-.99959 .024774 -.024774 -.99959 108.85 702.2)" d="m50 350.54v5"/>
   <path transform="matrix(-.72434 -.6893 .6893 -.72434 -178.26 632.03)" d="m50 350.54v5"/>
   <path transform="matrix(-.024774 -.99959 .99959 -.024774 -331.66 379.39)" d="m50 350.54v5"/>
   <path transform="matrix(.6893 -.72434 .72434 .6893 -261.48 92.283)" d="m50 350.54v5"/>
   <path transform="matrix(.99959 -.024774 .024774 .99959 -8.8498 -61.115)" d="m50 350.54v5"/>
   <path transform="matrix(.72434 .6893 -.6893 .72434 278.26 9.0568)" d="m50 350.54v5"/>
   <path transform="matrix(-.024774 .99959 -.99959 -.024774 434.13 279.43)" d="m50 350.54v5"/>
  </g>
 </g>
</svg>
