<svg version="1.1" viewBox="0 0 100 100" xmlns="http://www.w3.org/2000/svg">
 <g id="sun-overcast" transform="translate(1.5263 -286.99)">
  <g transform="rotate(156.13,24.208,365.78)" fill="#ff0">
   <path d="m15.912 404.89a14 14 0 0 1-14 14 14 14 0 0 1-14-14 14 14 0 0 1 14-14 14 14 0 0 1 14 14z" fill="#ff0" stroke="#000" stroke-width="1.0016"/>
  </g>
  <path d="m50.973 316.67a16 15 0 0 0-15.973 14.5h-4.0273c-8.3792 0-15.125 6.7458-15.125 15.125s6.7458 15.125 15.125 15.125h39.75c8.3793 0 15.125-6.7458 15.125-15.125s-6.7458-15.125-15.125-15.125h-3.7695a16 15 0 0 0-15.98-14.5z" fill="#fff" stroke="#000" stroke-width="1.0016"/>
 </g>
</svg>
