<svg version="1.1" viewBox="0 0 100 100" xmlns="http://www.w3.org/2000/svg">
 <g id="temp" transform="translate(0 -270.54)">
  <path transform="translate(0 270.54)" d="m50 15c-5.54 0-10 4.46-10 10v33.844a15 15 0 0 0-5 11.156 15 15 0 0 0 15 15 15 15 0 0 0 15-15 15 15 0 0 0-5-11.16v-33.84c0-5.54-4.46-10-10-10z" fill="none" stroke="#000018" stroke-width="1.0016"/>
  <rect id="bar" x="45" y="290.54" width="10" height="45" ry="5" fill="#00f"/>
  <circle cx="50" cy="340.54" r="10" fill="#00f"/>
  <g fill="none" stroke="#000" stroke-width="1px">
   <path d="m60 300.54h5"/>
   <path d="m60 310.54h5"/>
   <path d="m60 320.54h5"/>
  </g>
 </g>
</svg>
