<svg version="1.1" viewBox="0 0 100 100" xmlns="http://www.w3.org/2000/svg">
 <g id="thunderstorm" transform="translate(-100.97,-393.67)">
  <path d="m162.15 409.5a12.869 12.065 0 0 0-12.847 11.663h-3.2393c-6.7396 0-12.165 5.4258-12.165 12.165s5.4258 12.165 12.165 12.165h31.972c6.7396 0 12.165-5.4258 12.165-12.165s-5.4258-12.165-12.165-12.165h-3.0319a12.869 12.065 0 0 0-12.854-11.663z" fill="#fff" stroke="#000" stroke-width=".80559"/>
  <path d="m145.97 416.67a16 15 0 0 0-15.973 14.5h-4.0273c-8.3792 0-15.125 6.7458-15.125 15.125s6.7458 15.125 15.125 15.125h39.75c8.3792 0 15.125-6.7458 15.125-15.125s-6.7458-15.125-15.125-15.125h-3.7695a16 15 0 0 0-15.98-14.5z" fill="#808080" stroke="#808080" stroke-width="1.0016"/>
  <path d="m142.5 456.17-17.5 10h5l-7.5 10 17.5-10h-5z" fill="#ffd600"/>
  <path d="m150 466.17-10 10" fill="none" stroke="#0080ff" stroke-width="1px"/>
  <path d="m165 466.17-10 10" fill="none" stroke="#0080ff" stroke-width="1px"/>
 </g>
</svg>
